PathFileType	4	(X/Y/Z)	C:/ViconProjects/foot_20160225/trc/P_3_test01_dynamic.trc
DataRate	CameraRate	NumFrames	NumMarkers	Units	OrigDataRate	OrigDataStartFrame	OrigNumFrames
120.000000	120.000000	4	39	mm	120.000000	245	1954
Frame#	Time	LFWT			RFWT			VBWT			LKNE			LANK			LMT5			LMT1			LHEL			LTOE			RKNE			RANK			RMT5			RMT1			RHEL			RTOE			T10			FHEAD			THEAD			RHEAD			LBSH			LELB			LOWR			RBSH			RELB			ROWR			LTHI			RTHI			LSHAN			RSHAN			LIHEL			LOHEL			RIHEL			ROHEL			LMT3			LNAVI			LCUNE			RMT3			RNAVI			RCUNE			
		X0	Y0	Z0	X1	Y1	Z1	X2	Y2	Z2	X3	Y3	Z3	X4	Y4	Z4	X5	Y5	Z5	X6	Y6	Z6	X7	Y7	Z7	X8	Y8	Z8	X9	Y9	Z9	X10	Y10	Z10	X11	Y11	Z11	X12	Y12	Z12	X13	Y13	Z13	X14	Y14	Z14	X15	Y15	Z15	X16	Y16	Z16	X17	Y17	Z17	X18	Y18	Z18	X19	Y19	Z19	X20	Y20	Z20	X21	Y21	Z21	X22	Y22	Z22	X23	Y23	Z23	X24	Y24	Z24	X25	Y25	Z25	X26	Y26	Z26	X27	Y27	Z27	X28	Y28	Z28	X29	Y29	Z29	X30	Y30	Z30	X31	Y31	Z31	X32	Y32	Z32	X33	Y33	Z33	X34	Y34	Z34	X35	Y35	Z35	X36	Y36	Z36	X37	Y37	Z37	X38	Y38	Z38	
245	2.041667	-611.132570	93.012410	934.583010	-646.952390	-194.747120	923.570740	-851.851010	-16.091550	932.052250	-550.539490	137.637950	474.635680	-491.838930	153.144930	66.737490	-386.475460	167.103730	56.818390	-346.625890	98.938970	80.313440	-549.003230	97.989430	32.117890	-313.778720	108.814070	85.182040	-768.055240	-171.816020	441.987700	-910.028560	-147.738490	69.144030	-810.614440	-181.607360	32.047760	-759.861020	-101.022280	42.491080	-975.109560	-80.256440	44.122650	-716.837710	-120.564880	33.371960	-813.337220	7.156420	1273.360840	-402.512420	-58.066790	1475.076290	-432.595150	-66.282310	1611.635990	-561.238400	-67.212590	1628.310300	-641.276790	147.159760	1405.085080	-766.963260	261.813870	1115.397340	-739.520750	309.423520	864.043400	-650.546020	-260.718660	1387.589360	-737.413330	-358.306880	1069.970830	-608.054990	-350.068660	843.856080	-512.666260	69.056300	641.283020	-664.145510	-136.113130	539.169620	-501.098360	72.838350	338.911320	-814.429630	-85.079860	218.030880	-514.173340	65.726620	43.257440	-522.826290	137.773880	35.987790	-931.457210	-53.447030	43.186260	-948.280210	-126.820080	42.678760	-354.292480	135.541230	72.421550	-438.493740	64.074380	69.264340	-443.754000	163.281910	41.213240	-769.199280	-139.502690	37.017610	-855.815800	-58.404670	49.480040	-875.257450	-158.406300	32.966130
246	2.050000	-606.242800	93.733760	933.647890	-643.344300	-193.461170	922.986690	-847.276550	-14.393970	931.174500	-546.255980	137.840440	473.516050	-491.092620	153.146590	65.170010	-385.495700	165.616530	52.505540	-346.219420	96.556240	75.658410	-549.454040	98.849780	31.599780	-313.260040	106.227310	79.864280	-765.762210	-171.353740	441.523070	-911.124390	-148.091640	69.417220	-810.623840	-181.606090	31.984560	-759.884280	-101.075670	42.494650	-974.945860	-80.191310	44.537080	-716.838620	-120.674720	33.305680	-808.262210	9.670720	1272.248170	-396.944610	-55.446410	1474.255740	-427.129820	-63.125030	1610.572020	-556.036010	-63.483520	1627.687130	-636.188960	150.011860	1403.486210	-763.047360	263.868070	1114.324710	-736.494750	311.933230	862.821470	-645.013550	-257.706210	1387.502200	-733.968570	-355.720060	1070.269780	-606.883060	-347.588960	843.188420	-508.197020	69.370620	640.645320	-660.878720	-135.614070	538.212890	-498.709230	71.857080	336.979830	-813.408940	-84.899210	217.332860	-515.451780	66.321960	42.389160	-522.687930	138.325670	35.155510	-931.142700	-53.325710	43.489910	-947.803590	-126.441270	43.062470	-353.592770	133.624050	68.100750	-439.312990	63.214990	66.819680	-443.677030	162.930800	38.948820	-768.994320	-139.866230	37.174080	-855.671690	-58.433620	49.528800	-875.273380	-158.384370	33.036500
247	2.058333	-602.208310	95.454750	932.531490	-638.431820	-191.906780	921.972720	-842.817020	-12.900010	930.567500	-541.959590	138.071670	472.108980	-489.385350	153.212840	64.008190	-385.015810	166.236560	50.394100	-344.118130	94.696460	69.848690	-548.734740	99.375530	32.159600	-312.022220	103.709800	73.769240	-763.240110	-170.485890	440.860530	-911.016480	-148.219530	69.740780	-810.674990	-181.616880	32.049290	-759.869080	-101.132910	42.533610	-974.854740	-79.899590	44.966860	-716.824040	-120.795400	33.291640	-803.211360	11.869500	1271.513670	-391.809020	-53.040050	1473.084720	-421.812350	-60.207550	1609.557370	-551.012210	-60.589870	1627.150150	-631.434140	152.758190	1402.068120	-758.356690	266.288910	1113.063600	-732.997620	314.121120	861.444270	-640.910340	-255.421510	1387.379390	-731.073550	-353.057130	1070.601070	-605.138670	-344.741580	842.539860	-503.176850	69.716050	639.492800	-657.698610	-134.739820	536.995910	-496.798770	71.433780	334.636050	-812.339480	-84.674300	217.098430	-514.697690	66.429600	42.386470	-522.932370	138.993480	36.139920	-930.806400	-53.204040	43.810450	-948.132510	-126.397420	43.694840	-352.226620	132.397540	62.885580	-438.813600	62.592340	64.529430	-442.493010	162.237990	36.255730	-769.105960	-139.612180	36.937100	-854.868900	-59.019580	49.805560	-875.255550	-158.337650	33.030510
248	2.066667	-597.166870	96.783140	931.781490	-634.890750	-190.278590	921.267640	-838.212160	-10.750640	929.795960	-537.650630	138.657120	471.601230	-487.812290	154.886690	63.835060	-380.458860	163.077880	44.434750	-341.362030	93.846330	65.764010	-547.648560	99.611880	33.933820	-309.554020	102.597730	68.337800	-760.181580	-169.435930	440.430110	-910.377500	-147.917920	70.114590	-810.710270	-181.632280	32.013240	-759.816710	-101.160100	42.515940	-974.708560	-79.653970	45.214560	-716.909850	-120.874790	33.277450	-798.428890	14.418210	1270.804690	-386.533450	-50.152390	1472.077270	-416.197810	-57.090180	1608.931640	-545.505370	-57.339670	1626.095210	-625.851620	155.725750	1400.551390	-754.241030	268.534450	1111.719600	-730.229680	316.830720	860.000730	-635.199650	-252.447600	1386.890870	-727.457090	-350.322970	1071.120360	-603.291080	-341.789980	841.968140	-498.736450	69.679160	638.609310	-654.258790	-133.750490	536.456670	-492.598300	71.772630	334.030550	-810.649110	-84.232600	216.947690	-513.267940	66.378580	42.596370	-520.905580	139.119950	36.214390	-930.609560	-53.196220	44.269650	-948.134340	-125.644360	44.889440	-349.495480	131.315810	58.396770	-436.205510	62.211490	62.812460	-440.458740	161.856220	34.080380	-769.162290	-139.651250	36.896600	-854.776550	-59.024750	49.927810	-875.245180	-158.263170	33.063820
